<mxfile host="app.diagrams.net" agent="Mozilla/5.0 (Macintosh; Intel Mac OS X 10_15_7) AppleWebKit/605.1.15 (KHTML, like Gecko) Version/17.6 Safari/605.1.15" version="24.7.7">
  <diagram name="Page-1" id="HQMygzDaGYlCadJsfDkU">
    <mxGraphModel dx="1434" dy="827" grid="1" gridSize="10" guides="1" tooltips="1" connect="1" arrows="1" fold="1" page="1" pageScale="1" pageWidth="827" pageHeight="1169" math="0" shadow="0">
      <root>
        <mxCell id="0" />
        <mxCell id="1" parent="0" />
        <mxCell id="-9ES2fPpeawB7Ic0LZ5_-1" value="" style="ellipse;whiteSpace=wrap;html=1;aspect=fixed;fillColor=#dae8fc;strokeColor=#6c8ebf;" parent="1" vertex="1">
          <mxGeometry x="320" y="220" width="280" height="280" as="geometry" />
        </mxCell>
        <mxCell id="-9ES2fPpeawB7Ic0LZ5_-4" value="&lt;font style=&quot;font-size: 21px;&quot;&gt;x&lt;sup&gt;(1)&lt;/sup&gt;&lt;sub&gt;1&lt;/sub&gt;&lt;/font&gt;" style="text;html=1;align=center;verticalAlign=middle;whiteSpace=wrap;rounded=0;" parent="1" vertex="1">
          <mxGeometry x="120" y="220" width="60" height="30" as="geometry" />
        </mxCell>
        <mxCell id="-9ES2fPpeawB7Ic0LZ5_-5" value="&lt;font style=&quot;font-size: 21px;&quot;&gt;x&lt;sup&gt;(1)&lt;/sup&gt;&lt;sub&gt;2&lt;/sub&gt;&lt;/font&gt;" style="text;html=1;align=center;verticalAlign=middle;whiteSpace=wrap;rounded=0;" parent="1" vertex="1">
          <mxGeometry x="120" y="345" width="60" height="30" as="geometry" />
        </mxCell>
        <mxCell id="-9ES2fPpeawB7Ic0LZ5_-6" value="&lt;font style=&quot;font-size: 21px;&quot;&gt;x&lt;sup&gt;(1)&lt;/sup&gt;&lt;sub&gt;3&lt;/sub&gt;&lt;/font&gt;" style="text;html=1;align=center;verticalAlign=middle;whiteSpace=wrap;rounded=0;" parent="1" vertex="1">
          <mxGeometry x="120" y="470" width="60" height="30" as="geometry" />
        </mxCell>
        <mxCell id="-9ES2fPpeawB7Ic0LZ5_-7" value="" style="endArrow=classic;html=1;rounded=0;exitX=1;exitY=0.5;exitDx=0;exitDy=0;entryX=0.004;entryY=0.368;entryDx=0;entryDy=0;entryPerimeter=0;" parent="1" source="-9ES2fPpeawB7Ic0LZ5_-4" target="-9ES2fPpeawB7Ic0LZ5_-1" edge="1">
          <mxGeometry width="50" height="50" relative="1" as="geometry">
            <mxPoint x="390" y="450" as="sourcePoint" />
            <mxPoint x="440" y="400" as="targetPoint" />
          </mxGeometry>
        </mxCell>
        <mxCell id="-9ES2fPpeawB7Ic0LZ5_-10" value="" style="endArrow=classic;html=1;rounded=0;exitX=1;exitY=0.5;exitDx=0;exitDy=0;entryX=0;entryY=0.5;entryDx=0;entryDy=0;" parent="1" source="-9ES2fPpeawB7Ic0LZ5_-5" target="-9ES2fPpeawB7Ic0LZ5_-1" edge="1">
          <mxGeometry width="50" height="50" relative="1" as="geometry">
            <mxPoint x="390" y="450" as="sourcePoint" />
            <mxPoint x="440" y="400" as="targetPoint" />
          </mxGeometry>
        </mxCell>
        <mxCell id="-9ES2fPpeawB7Ic0LZ5_-13" value="" style="endArrow=classic;html=1;rounded=0;exitX=1;exitY=0.5;exitDx=0;exitDy=0;entryX=0.014;entryY=0.65;entryDx=0;entryDy=0;entryPerimeter=0;" parent="1" source="-9ES2fPpeawB7Ic0LZ5_-6" target="-9ES2fPpeawB7Ic0LZ5_-1" edge="1">
          <mxGeometry width="50" height="50" relative="1" as="geometry">
            <mxPoint x="390" y="450" as="sourcePoint" />
            <mxPoint x="330" y="364" as="targetPoint" />
          </mxGeometry>
        </mxCell>
        <mxCell id="rA9gJBEbsytchZREEXEG-1" value="" style="endArrow=none;html=1;strokeWidth=2;rounded=0;entryX=0.5;entryY=0;entryDx=0;entryDy=0;exitX=0.5;exitY=1;exitDx=0;exitDy=0;" parent="1" source="-9ES2fPpeawB7Ic0LZ5_-1" target="-9ES2fPpeawB7Ic0LZ5_-1" edge="1">
          <mxGeometry width="50" height="50" relative="1" as="geometry">
            <mxPoint x="590" y="480" as="sourcePoint" />
            <mxPoint x="640" y="430" as="targetPoint" />
          </mxGeometry>
        </mxCell>
        <mxCell id="rA9gJBEbsytchZREEXEG-2" value="&lt;font style=&quot;font-size: 15px;&quot;&gt;Z&lt;sup&gt;[1](1)&lt;/sup&gt;&lt;sub&gt;&amp;nbsp;&lt;/sub&gt;&lt;/font&gt;&lt;div&gt;&lt;font style=&quot;font-size: 15px;&quot;&gt;=&lt;/font&gt;&lt;div&gt;&lt;font style=&quot;font-size: 15px;&quot;&gt;&amp;nbsp;W&lt;sup&gt;[1]&lt;/sup&gt;&lt;sub&gt;1&lt;/sub&gt;&lt;sup&gt;T&lt;/sup&gt;X&lt;sup&gt;(1)&lt;/sup&gt; + b&lt;sup&gt;[1]&lt;/sup&gt;&lt;sub&gt;1&lt;/sub&gt;&lt;/font&gt;&lt;/div&gt;&lt;/div&gt;" style="text;html=1;align=center;verticalAlign=middle;whiteSpace=wrap;rounded=0;" parent="1" vertex="1">
          <mxGeometry x="324" y="345" width="136" height="30" as="geometry" />
        </mxCell>
        <mxCell id="rA9gJBEbsytchZREEXEG-3" value="&lt;font style=&quot;font-size: 15px;&quot;&gt;a&lt;sup&gt;[1](1)&lt;/sup&gt;&lt;sub&gt;1&lt;/sub&gt; = f(Z&lt;sup&gt;[1](1)&lt;/sup&gt;)&lt;/font&gt;" style="text;html=1;align=center;verticalAlign=middle;whiteSpace=wrap;rounded=0;" parent="1" vertex="1">
          <mxGeometry x="470" y="350" width="120" height="30" as="geometry" />
        </mxCell>
      </root>
    </mxGraphModel>
  </diagram>
</mxfile>
